/vscmnt/brussel_pixiu_data/_data_brussel/112/vsc11236/PredSimResults/SUBJ10opt3D/expIG/worker_05.mot
version=1
nRows=7
nColumns=50
inDegrees=yes
endheader
                time	         pelvis_tilt	         pelvis_list	     pelvis_rotation	           pelvis_tx	           pelvis_ty	           pelvis_tz	       hip_flexion_r	     hip_adduction_r	      hip_rotation_r	        knee_angle_r	       ankle_angle_r	         mtp_angle_r	       hip_flexion_l	     hip_adduction_l	      hip_rotation_l	        knee_angle_l	       ankle_angle_l	         mtp_angle_l	    lumbar_extension	      lumbar_bending	     lumbar_rotation	 ercspn_r/activation	 intobl_r/activation	 extobl_r/activation	    abd_r/activation	    add_r/activation	hamstrings_r/activation	bifemsh_r/activation	glut_max_r/activation	iliopsoas_r/activation	rect_fem_r/activation	  vasti_r/activation	gastroc_r/activation	 soleus_r/activation	tib_ant_r/activation	 ercspn_l/activation	 intobl_l/activation	 extobl_l/activation	    abd_l/activation	    add_l/activation	hamstrings_l/activation	bifemsh_l/activation	glut_max_l/activation	iliopsoas_l/activation	rect_fem_l/activation	  vasti_l/activation	gastroc_l/activation	 soleus_l/activation	tib_ant_l/activation	
          0.00000000	         -3.08874247	         -1.24418393	          7.72436890	          0.00000000	          0.83048964	         -0.01474695	         28.95128980	         -1.47680280	         -5.61148100	         -8.47308542	          2.36902996	          0.25008976	        -14.71767294	         -1.34989552	         -1.00152135	         -6.39405576	          9.76028756	         23.29172961	         -5.80509220	         -1.15225284	         -5.37632261	          0.11307448	          0.18221043	          0.00999999	          0.00999999	          0.13063142	          0.07983629	          0.18524270	          0.02088797	          0.08621885	          0.00999999	          0.00999999	          0.00999999	          0.00999999	          0.25834753	          0.05949432	          0.00999999	          0.00999999	          0.06349125	          0.00999999	          0.01000000	          0.19400136	          0.00999999	          0.28734802	          0.00999999	          0.00999999	          0.27566775	          0.24333797	          0.02268558	
          0.01227546	         -3.14349171	         -1.16852212	          7.75952637	          0.01443686	          0.82912831	         -0.01423606	         28.72649355	         -1.36106779	         -5.48162406	         -9.63038934	          2.20523426	          0.24809424	        -14.87693641	         -1.42131519	         -1.40375710	         -7.83440390	          9.24480416	         24.82657479	         -5.59128429	         -0.75493706	         -5.71696118	          0.09924735	          0.17078464	          0.00999999	          0.00999999	          0.16322851	          0.07075209	          0.16591844	          0.04012443	          0.07157521	          0.00999999	          0.00999999	          0.01451038	          0.01204590	          0.27417407	          0.08959647	          0.00999999	          0.00999999	          0.05270772	          0.00999999	          0.01000032	          0.16105163	          0.01204590	          0.23854404	          0.00999999	          0.00999999	          0.25209772	          0.23699025	          0.01883260	
          0.02455093	         -3.18899611	         -1.10438863	          7.74970487	          0.02920380	          0.82795655	         -0.01363496	         28.34771767	         -1.24518402	         -5.29059479	        -10.68102041	          1.91647525	          0.24371435	        -14.95809086	         -1.51384292	         -1.83510029	         -9.45665454	          8.58889535	         26.35552030	         -5.35379530	         -0.32870165	         -6.04274173	          0.09374181	          0.14177814	          0.00999999	          0.02114752	          0.13550533	          0.06562825	          0.13773840	          0.06844062	          0.05941868	          0.00999999	          0.00999999	          0.01204590	          0.00999999	          0.32942637	          0.09823122	          0.00999999	          0.00999999	          0.04375570	          0.00999999	          0.00999999	          0.13369818	          0.00999999	          0.19802907	          0.00999999	          0.00999999	          0.22052736	          0.22518663	          0.01563402	
          0.03682639	         -3.22582033	         -1.03906546	          7.68780613	          0.04412676	          0.82709045	         -0.01291495	         27.90296749	         -1.13444129	         -5.18352036	        -11.60575535	          1.50608349	          0.23487753	        -14.89863700	         -1.61502194	         -2.29723578	        -11.34607314	          7.77831659	         27.83237948	         -5.11335575	          0.10481995	         -6.34182993	          0.10521379	          0.11769815	          0.00999999	          0.06283384	          0.17626179	          0.05859095	          0.11434453	          0.07371309	          0.04932684	          0.00999999	          0.01626767	          0.00999999	          0.00999999	          0.37432496	          0.12109219	          0.00999999	          0.00999999	          0.03632411	          0.00999999	          0.00999999	          0.11099051	          0.00999999	          0.16439526	          0.00999999	          0.00999999	          0.18307239	          0.21125779	          0.01297869	
          0.04910185	         -3.25314957	         -0.97172215	          7.57823680	          0.05908764	          0.82663221	         -0.01208873	         27.44657418	         -1.03083547	         -5.16984738	        -12.52662933	          1.12514833	          0.22467066	        -14.65221639	         -1.72744234	         -2.79210078	        -13.56156661	          6.80656723	         29.16879155	         -4.87852132	          0.54144518	         -6.60827385	          0.10224895	          0.09770797	          0.00999999	          0.09217285	          0.18943950	          0.06073812	          0.09492394	          0.06386178	          0.04094904	          0.00999999	          0.03239625	          0.00999999	          0.00999999	          0.40006607	          0.13740083	          0.00999999	          0.00999999	          0.03015472	          0.00999999	          0.01271772	          0.09213958	          0.00999999	          0.13647392	          0.00999999	          0.00999999	          0.15197887	          0.19366445	          0.01077436	
          0.06137732	         -3.27180375	         -0.91014011	          7.43053864	          0.07396476	          0.82666986	         -0.01117351	         27.00089201	         -0.92296866	         -5.20265483	        -13.48716218	          0.89656492	          0.21160337	        -14.17258897	         -1.86511607	         -3.32023560	        -16.15459061	          5.68549384	         30.22506066	         -4.65712497	          0.98643486	         -6.84436091	          0.09560918	          0.08111298	          0.00999999	          0.10934201	          0.19453489	          0.06341454	          0.07880180	          0.06010829	          0.03399414	          0.00999999	          0.06380406	          0.00999999	          0.00999999	          0.40569673	          0.15296046	          0.00999999	          0.00999999	          0.02503316	          0.05833508	          0.02999365	          0.07649034	          0.00999999	          0.11329482	          0.00999999	          0.00999999	          0.12616636	          0.16974386	          0.00999999	
          0.07365278	         -3.28368547	         -0.85210218	          7.24928587	          0.08864412	          0.82729635	         -0.01019139	         26.53415105	         -0.80419759	         -5.23741376	        -14.42923953	          0.91002523	          0.19967520	        -13.41632631	         -2.03061521	         -3.90367513	        -19.16725420	          4.42662348	         30.81507460	         -4.45809980	          1.43502497	         -7.05100246	          0.08977823	          0.06733653	          0.00999999	          0.11719279	          0.20482208	          0.06655978	          0.06541789	          0.05972822	          0.02822048	          0.00999999	          0.08350741	          0.00999999	          0.00999999	          0.38661244	          0.16146414	          0.00999999	          0.00999999	          0.02078146	          0.11907595	          0.03723766	          0.06349901	          0.00999999	          0.09405251	          0.00999999	          0.00999999	          0.10473792	          0.14091410	          0.00999999	
